<svg xmlns="http://www.w3.org/2000/svg" viewBox="0 0 400 88"><defs><style>.cls-1{fill:#f5f3ff;}</style></defs><g id="Layer_2" data-name="Layer 2"><g id="Layer_1-2" data-name="Layer 1"><path class="cls-1" d="M22.08,69.68H0L9.9,22.79H32.2ZM35,8.51a8.92,8.92,0,0,1-1,4.36A10.44,10.44,0,0,1,31.28,16a11.78,11.78,0,0,1-3.87,2,15.24,15.24,0,0,1-4.46.66,12.3,12.3,0,0,1-7.28-2.07Q12.73,14.5,12.73,10a9.17,9.17,0,0,1,1-4.3,9,9,0,0,1,2.66-3.17A12.56,12.56,0,0,1,20.29.65,16.53,16.53,0,0,1,24.91,0a12.15,12.15,0,0,1,7.18,2.07Q35,4.14,35,8.51Z"/><path class="cls-1" d="M31,61.17,60.05,30.1H38l1.41-7.31h45.8l-1.74,7.85L55.15,62.37H79.2l-1.31,7.31H29.37Z"/><path class="cls-1" d="M106,69.68H83.87l9.9-46.89h22.3ZM118.9,8.51a8.81,8.81,0,0,1-1,4.36A10.44,10.44,0,0,1,115.15,16a11.73,11.73,0,0,1-3.86,2,15.29,15.29,0,0,1-4.46.66,12.35,12.35,0,0,1-7.29-2.07Q96.6,14.5,96.6,10a9.29,9.29,0,0,1,1-4.3,8.92,8.92,0,0,1,2.67-3.17A12.4,12.4,0,0,1,104.16.65,16.58,16.58,0,0,1,108.78,0,12.13,12.13,0,0,1,116,2.07Q118.9,4.14,118.9,8.51Z"/><path class="cls-1" d="M171,36.53c.07-.36.14-.73.22-1.09a6.29,6.29,0,0,0,.11-1.2,9.39,9.39,0,0,0-.71-3.65,2.72,2.72,0,0,0-2.78-1.69,5.71,5.71,0,0,0-3.69,1.58,5.22,5.22,0,0,0-1.85,4.2,4,4,0,0,0,.92,2.78,6.89,6.89,0,0,0,2.45,1.69,20.35,20.35,0,0,0,3.43,1.09l3.75.87a39.82,39.82,0,0,1,4.95,1.58A15.85,15.85,0,0,1,182,45.14a11.12,11.12,0,0,1,2.93,3.77,12.42,12.42,0,0,1,1.09,5.5,13.34,13.34,0,0,1-2.12,7.69,15.34,15.34,0,0,1-5.87,5,29,29,0,0,1-8.82,2.67,72.44,72.44,0,0,1-10.82.76,67.1,67.1,0,0,1-14.58-1.31,36.93,36.93,0,0,1-8.05-2.5l2.29-10.91h14.68a5.58,5.58,0,0,0-.11,1v1a6.32,6.32,0,0,0,1.15,4c.76,1,2.08,1.48,4,1.48q3.15,0,4.51-1.8a5.65,5.65,0,0,0,1.36-3.33,3.66,3.66,0,0,0-1.14-2.67,10,10,0,0,0-2.88-2,24.6,24.6,0,0,0-3.87-1.42L151.65,51a18.46,18.46,0,0,1-3.21-1.09A12.62,12.62,0,0,1,145,47.76a11.15,11.15,0,0,1-2.72-3.65,12.74,12.74,0,0,1-1.09-5.62,13.26,13.26,0,0,1,2.34-8,17.39,17.39,0,0,1,6.09-5.18,30.08,30.08,0,0,1,8.49-2.84,52.44,52.44,0,0,1,9.52-.87A56.89,56.89,0,0,1,179,22.68a33.86,33.86,0,0,1,8.7,2.84l-2.5,11Z"/><path class="cls-1" d="M192.66,22.79h23.06l3.81,32.06,13.16-32.06h20.78l3.7,32.06,13.16-32.06h11.53L260.21,69.68H237.48l-4-23.77-11,23.77H199.73Z"/><path class="cls-1" d="M287.19,26.83a48.85,48.85,0,0,1,11.37-4,61.58,61.58,0,0,1,13-1.26,51.27,51.27,0,0,1,11.53,1.09,19.46,19.46,0,0,1,7.29,3.16,11.31,11.31,0,0,1,3.81,4.91,18,18,0,0,1,1.08,6.43,40.17,40.17,0,0,1-.27,4.48c-.18,1.6-.38,2.94-.6,4l-5.11,24H311.78l-2-7h-.65a23.84,23.84,0,0,1-8.11,5.84,22.91,22.91,0,0,1-9.19,2,17.33,17.33,0,0,1-5.11-.76,13,13,0,0,1-4.46-2.35,11.56,11.56,0,0,1-3.16-4,13.44,13.44,0,0,1-1.2-5.94q0-5.67,3.1-9a19.28,19.28,0,0,1,8.16-5,46.3,46.3,0,0,1,11.43-2.12q6.36-.44,12.78-.44c.14-.72.32-1.76.54-3.11a22.17,22.17,0,0,0,.33-3.54,7,7,0,0,0-1-3.65q-1-1.69-4.3-1.69-3.81,0-5.6,2.23a11.53,11.53,0,0,0-2.34,5.4H285.12Zm25,19.19h-2a15.53,15.53,0,0,0-5.38.82A10,10,0,0,0,301.28,49a8.25,8.25,0,0,0-2,2.95,8.68,8.68,0,0,0-.66,3.27A5.19,5.19,0,0,0,300,59.1a4.46,4.46,0,0,0,3.21,1.31,7.58,7.58,0,0,0,4.52-1.63,6.93,6.93,0,0,0,2.77-4.37Z"/><path class="cls-1" d="M356.59,88H334.4l13.71-65.21h17.73l2,7h.65a23.07,23.07,0,0,1,8.76-5.94,27.2,27.2,0,0,1,9.52-1.8,15.6,15.6,0,0,1,6.36,1.14,10.42,10.42,0,0,1,4.08,3.11A12.16,12.16,0,0,1,399.35,31a25,25,0,0,1,.65,5.78c0,1-.07,2.54-.22,4.58a52.61,52.61,0,0,1-1,6.81,57.82,57.82,0,0,1-2.17,7.75,29.79,29.79,0,0,1-3.75,7.25A18.93,18.93,0,0,1,387,68.48a16.41,16.41,0,0,1-8.43,2.07,21.57,21.57,0,0,1-5.28-.65,21.21,21.21,0,0,1-4.62-1.75A16.47,16.47,0,0,1,365,65.59a10.4,10.4,0,0,1-2.34-3H362Zm11.54-28q2.61,0,4.35-2.79a25.84,25.84,0,0,0,2.83-6.54,50.31,50.31,0,0,0,1.57-7.52,47.17,47.17,0,0,0,.49-5.62,8.1,8.1,0,0,0-.7-3.6,2.62,2.62,0,0,0-2.56-1.41A6.22,6.22,0,0,0,370.19,34a17.41,17.41,0,0,0-2.72,2.56l-4.24,20a17,17,0,0,0,2.07,2.34A4,4,0,0,0,368.13,60Z"/></g></g></svg>